<svg xmlns="http://www.w3.org/2000/svg" fill="none" viewBox="0 0 512 512" height="512" width="512">
  <g id="chat-error-alt">
    <path id="Union" fill="#e2574a" d="M256.00426666666664 42.666666666666664c117.81973333333333 0.0031999999999999997 213.33333333333331 95.51466666666666 213.33333333333331 213.33333333333331 0 117.81973333333333 -95.5136 213.32906666666668 -213.33333333333331 213.33333333333331 -32.992 0 -64.27626666666666 -7.530666666666666 -92.20736 -20.936533333333333L59.359359999999995 479.1253333333333c-7.4882133333333325 2.2016 -15.584 0.14293333333333333 -21.104213333333334 -5.3759999999999994s-7.577813333333333 -13.614933333333333 -5.374933333333333 -21.102933333333333l30.708266666666663 -104.45866666666666c-13.401173333333332 -27.92533333333333 -20.91669333333333 -59.20426666666666 -20.91669333333333 -92.18773333333333 0 -117.82079999999999 95.51274666666666 -213.33333333333331 213.33247999999998 -213.33333333333331m0 42.666666666666664c-94.25557333333333 0 -170.66581333333332 76.41002666666665 -170.66581333333332 170.66666666666666 0 28.991999999999997 7.206613333333333 56.24106666666666 19.9168 80.10453333333334 2.624213333333333 4.928 3.220693333333333 10.705066666666667 1.6458666666666666 16.061866666666667l-22.083413333333333 74.99946666666666 75.0208 -22.0608 2.0416 -0.5013333333333333c4.755626666666666 -0.9023999999999999 9.712 -0.14933333333333332 14.020906666666665 2.1461333333333332C199.76341333333335 419.4581333333333 227.01439999999997 426.66666666666663 256.00426666666664 426.66666666666663c94.25493333333333 -0.004266666666666667 170.66666666666666 -76.41173333333333 170.66666666666666 -170.66666666666666 0 -94.25450666666667 -76.41173333333333 -170.66346666666666 -170.66666666666666 -170.66666666666666m43.584 96.91669333333334c8.330666666666666 -8.328106666666667 21.8368 -8.33024 30.167466666666662 0 8.324266666666666 8.330453333333333 8.3264 21.8368 0 30.166613333333334L286.17173333333335 256l43.584 43.584c8.324266666666666 8.330666666666666 8.3264 21.8368 0 30.16533333333333 -8.330666666666666 8.330666666666666 -21.834666666666667 8.3264 -30.167466666666662 0l-43.584 -43.58186666666666 -43.58229333333333 43.58186666666666c-8.329813333333332 8.330666666666666 -21.835306666666668 8.3264 -30.166826666666665 0 -8.331093333333332 -8.330666666666666 -8.331093333333332 -21.834666666666667 0 -30.16533333333333L225.83893333333333 256 182.25514666666666 212.41663999999997c-8.331093333333332 -8.331093333333332 -8.331093333333332 -21.835519999999995 0 -30.166613333333334 8.33152 -8.328106666666667 21.836586666666665 -8.33024 30.166826666666665 0l43.58229333333333 43.58250666666667z" stroke-width="21.3333"></path>
  </g>
</svg>