<svg xmlns="http://www.w3.org/2000/svg" viewBox="0 0 512 512" id="Download-Bottom--Streamline-Ultimate" height="512" width="512">
  <desc>
    Download Bottom Streamline Icon: https://streamlinehq.com
  </desc>
  <g id="Download-Bottom--Streamline-Ultimate.svg">
    <path d="M483.62666666666667 361.38666666666666a26.026666666666664 26.026666666666664 0 0 0 -26.026666666666664 25.813333333333333V426.66666666666663a33.49333333333333 33.49333333333333 0 0 1 -33.49333333333333 33.49333333333333H87.89333333333333A33.49333333333333 33.49333333333333 0 0 1 54.39999999999999 426.66666666666663v-39.46666666666667a26.026666666666664 26.026666666666664 0 0 0 -51.84 0V426.66666666666663a85.33333333333333 85.33333333333333 0 0 0 85.33333333333333 85.33333333333333h336.2133333333333a85.33333333333333 85.33333333333333 0 0 0 85.33333333333333 -85.33333333333333v-39.46666666666667a25.813333333333333 25.813333333333333 0 0 0 -25.813333333333333 -25.813333333333333Z" fill="#0c0d0f" stroke-width="21.3333"></path>
    <path d="M256 0a41.38666666666666 41.38666666666666 0 0 0 -41.38666666666666 41.38666666666666V234.66666666666666a5.333333333333333 5.333333333333333 0 0 1 -5.333333333333333 5.333333333333333H152.53333333333333a21.333333333333332 21.333333333333332 0 0 0 -15.573333333333332 34.13333333333333l103.46666666666665 119.03999999999999a21.333333333333332 21.333333333333332 0 0 0 31.146666666666665 0l103.46666666666665 -119.03999999999999a21.333333333333332 21.333333333333332 0 0 0 -15.573333333333332 -34.13333333333333h-56.74666666666667a5.333333333333333 5.333333333333333 0 0 1 -5.333333333333333 -5.333333333333333V41.38666666666666A41.38666666666666 41.38666666666666 0 0 0 256 0Z" fill="#0c0d0f" stroke-width="21.3333"></path>
  </g>
</svg>