<svg viewBox="-16 -16 512 512" fill="none" xmlns="http://www.w3.org/2000/svg" id="Gallery-Download--Streamline-Solar-Broken" height="512" width="512">
  <desc>
    Gallery Download Streamline Icon: https://streamlinehq.com
  </desc>
  <path d="m40 250.002 35.0318 -30.652c18.2254 -15.946 45.693799999999996 -15.032 62.818 2.092l85.7942 85.794c13.744 13.746 35.379999999999995 15.620000000000001 51.284 4.442l5.964 -4.1899999999999995c22.884 -16.084 53.846 -14.219999999999999 74.638 4.492L420 370.002" stroke="#17c8b8" stroke-linecap="round" stroke-width="32"></path>
  <path d="M340 220V40m0 180 60 -60m-60 60 -60 -60" stroke="#17c8b8" stroke-linecap="round" stroke-linejoin="round" stroke-width="32"></path>
  <path d="M440 240c0 94.28 0 141.422 -29.29 170.71C381.422 440 334.28 440 240 440c-94.281 0 -141.4214 0 -170.7106 -29.29C40 381.422 40 334.28 40 240c0 -22.566000000000003 0 -42.43299999999999 0.4016 -60M240 40C145.719 40 98.57860000000001 40 69.2894 69.2894c-8.4964 8.4964 -14.5282 18.4948 -18.8102 30.7106" stroke="#17c8b8" stroke-linecap="round" stroke-width="32"></path>
</svg>