<svg xmlns="http://www.w3.org/2000/svg" viewBox="0 0 512 512" id="Loading--Streamline-Ultimate" height="512" width="512">
  <desc>
    Loading Streamline Icon: https://streamlinehq.com
  </desc>
  <g id="Loading--Streamline-Ultimate.svg">
    <path d="M256 138.66666666666666A32 32 0 0 0 288 106.66666666666666V42.666666666666664a32 32 0 0 0 -64 0v64A32 32 0 0 0 256 138.66666666666666Z" fill="#56575a" stroke-width="21.3333"></path>
    <path d="M176.42666666666665 130.34666666666666 131.2 85.33333333333333A32.64 32.64 0 0 0 85.33333333333333 85.33333333333333a31.57333333333333 31.57333333333333 0 0 0 -9.386666666666667 22.613333333333333A32.42666666666666 32.42666666666666 0 0 0 85.33333333333333 130.34666666666666l45.86666666666666 45.22666666666667a32 32 0 0 0 22.613333333333333 9.386666666666667 32 32 0 0 0 22.613333333333333 -54.61333333333333Z" fill="#56575a" stroke-width="21.3333"></path>
    <path d="M10.666666666666666 256A32 32 0 0 0 42.666666666666664 288h64a32 32 0 0 0 0 -64H42.666666666666664A32 32 0 0 0 10.666666666666666 256Z" fill="#56575a" stroke-width="21.3333"></path>
    <path d="M149.33333333333331 331.0933333333333a31.57333333333333 31.57333333333333 0 0 0 -23.46666666666667 10.239999999999998l-45.44 44.373333333333335a32.21333333333333 32.21333333333333 0 0 0 0 45.22666666666667 32.21333333333333 32.21333333333333 0 0 0 45.44 0L170.66666666666666 385.7066666666666a32 32 0 0 0 -21.333333333333332 -54.61333333333333Z" fill="#56575a" stroke-width="21.3333"></path>
    <path d="M224 469.3333333333333a32 32 0 0 0 64 0v-64a32 32 0 0 0 -64 0Z" fill="#56575a" stroke-width="21.3333"></path>
    <path d="M342.4 341.3333333333333a32 32 0 0 0 0 45.22666666666667l45.22666666666667 45.22666666666667a32.42666666666666 32.42666666666666 0 0 0 22.613333333333333 9.386666666666667 32.85333333333333 32.85333333333333 0 0 0 22.826666666666668 -9.386666666666667 32.21333333333333 32.21333333333333 0 0 0 9.173333333333332 -22.613333333333333 31.57333333333333 31.57333333333333 0 0 0 -9.386666666666667 -22.826666666666668L387.62666666666667 341.3333333333333a32 32 0 0 0 -45.22666666666667 0Z" fill="#56575a" stroke-width="21.3333"></path>
    <path d="M501.3333333333333 256a32 32 0 0 0 -32 -32h-64a32 32 0 0 0 -32 32 32 32 0 0 0 32 32h64a32 32 0 0 0 32 -32Z" fill="#56575a" stroke-width="21.3333"></path>
    <path d="M405.3333333333333 72.74666666666667a32.42666666666666 32.42666666666666 0 0 0 -21.333333333333332 9.386666666666667L338.34666666666664 128a32 32 0 0 0 0 45.22666666666667 32.21333333333333 32.21333333333333 0 0 0 45.44 0L429.0133333333333 128A32 32 0 0 0 405.3333333333333 72.74666666666667Z" fill="#56575a" stroke-width="21.3333"></path>
  </g>
</svg>