<?xml version="1.0" encoding="utf-8"?>
<!-- Generator: Adobe Illustrator 28.2.0, SVG Export Plug-In . SVG Version: 6.00 Build 0)  -->
<svg version="1.1" id="Layer_1" xmlns="http://www.w3.org/2000/svg" xmlns:xlink="http://www.w3.org/1999/xlink" x="0px" y="0px"
	 viewBox="0 0 128 128" style="enable-background:new 0 0 128 128;" xml:space="preserve">
<style type="text/css">
	.st0{fill:#17c8b8;}
</style>
<g>
	<path class="st0" d="M58.8,118.3c-1.4-0.4-1.8-1.8-2-7.6l-0.3-7.1l-4.6-1.6c-7.8-2.7-11.7-6-15.2-13.1c-3.2-6.5-3.2-6.5-3.7-25.8
		c-0.5-20.8,0-37.6,1.3-38.9c1.4-1.3,7.8-0.9,8.8,0.7c0.5,0.8,0.9,4.3,0.9,7.7l0,6.3l18.2-0.3l18.2-0.3l0.3-7.2
		c0.3-7,0.4-7.2,3.2-7.8c1.6-0.4,3.8-0.1,5,0.5c2.3,1.2,2.4,2.6,2.1,37.5c-0.2,21.2-1.4,26.5-7.4,33.3c-3.1,3.6-11.6,8.2-14.9,8.2
		c-1.5,0-1.8,1-1.8,7c0,5.9-0.3,7.1-1.9,8C63.1,119,61.8,119.1,58.8,118.3z M76.3,88c3.5-4.1,4.1-8,4.2-24.5l0-14l-6.8-0.3L67,48.9
		v21.9c0,12,0.3,22.2,0.6,22.5C68.6,94.3,73.6,91.3,76.3,88z M57,71V49h-6.5H44v15.5c0,11.9,0.4,16.4,1.6,19.5c1.7,4.3,6.7,9,9.6,9
		C56.9,93,57,91.3,57,71z"/>
</g>
</svg>
