<svg xmlns="http://www.w3.org/2000/svg" fill="none" viewBox="0 0 512 512" height="512" width="512">
  <path fill="#17c8b8" d="M256 0c28.290133333333333 0 55.413333333333334 11.246122666666666 75.4176 31.249919999999996 9.514666666666667 9.51616 17.026133333333334 20.6528 22.312533333333334 32.75008H448c11.782399999999999 0 21.333333333333332 9.551359999999999 21.333333333333332 21.333333333333332v405.3333333333333c0 11.782399999999999 -9.550933333333333 21.333333333333332 -21.333333333333332 21.333333333333332H64c-11.781973333333333 0 -21.333333333333332 -9.550933333333333 -21.333333333333332 -21.333333333333332V85.33333333333333c0 -11.781973333333333 9.551359999999999 -21.333333333333332 21.333333333333332 -21.333333333333332h94.27093333333332c5.2842666666666664 -12.09728 12.796373333333332 -23.233919999999998 22.31232 -32.75008C200.58730666666668 11.246122666666666 227.70986666666664 0 256 0M85.33333333333333 469.3333333333333h341.3333333333333V106.66666666666666h-64v21.333333333333332c0 11.781973333333333 -9.550933333333333 21.333333333333332 -21.333333333333332 21.333333333333332H170.66666666666666c-11.781973333333333 0 -21.333333333333332 -9.551359999999999 -21.333333333333332 -21.333333333333332V106.66666666666666H85.33333333333333zm85.33333333333333 -85.33333333333333v42.666666666666664H128v-42.666666666666664zm213.33333333333331 42.666666666666664h-170.66666666666666v-42.666666666666664h170.66666666666666zM170.66666666666666 341.3333333333333H128v-42.666666666666664h42.666666666666664zm213.33333333333331 0h-170.66666666666666v-42.666666666666664h170.66666666666666zM170.66666666666666 256H128v-42.666666666666664h42.666666666666664zm213.33333333333331 0h-170.66666666666666v-42.666666666666664h170.66666666666666zM256 42.666666666666664c-16.9728 0 -33.248 6.747733333333334 -45.24992 18.750079999999997C198.74773333333331 73.41909333333334 192 89.69279999999999 192 106.66666666666666h128c0 -16.973866666666666 -6.747733333333334 -33.247573333333335 -18.749866666666666 -45.24992S272.9728 42.666666666666664 256 42.666666666666664" stroke-width="21.3333"></path>
</svg>