<svg xmlns="http://www.w3.org/2000/svg" fill="none" viewBox="-18.285 -18.285 512 512" id="Youtube--Streamline-Flex" height="512" width="512">
  <desc>
    Youtube Streamline Icon: https://streamlinehq.com
  </desc>
  <g id="youtube--youtube-clip-social-video">
    <path id="Intersect" stroke="#17c8b8" stroke-linecap="round" stroke-linejoin="round" d="M38.713585714285706 308.4861514285714c5.671200714285714 48.731575 46.184628571428576 87.13952714285713 95.08599999999998 91.58819357142858 33.82344857142857 3.056335714285714 68.52983857142856 5.671200714285714 103.91541428571428 5.671200714285714 35.385575714285714 0 70.0919657142857 -2.614865 103.91541428571428 -5.671200714285714 48.90137142857142 -4.414707142857143 89.41479928571428 -42.85661857142857 95.08599999999998 -91.58819357142858 2.716742857142857 -23.16023285714286 4.754300000000001 -46.795895714285706 4.754300000000001 -70.77115142857143 0 -23.975255714285712 -2.0375571428571426 -47.61091857142856 -4.754300000000001 -70.77115142857143 -5.671200714285714 -48.731575 -46.184628571428576 -87.13952714285713 -95.08599999999998 -91.58819357142858 -33.82344857142857 -3.056335714285714 -68.52983857142856 -5.671200714285714 -103.91541428571428 -5.671200714285714 -35.385575714285714 0 -70.0919657142857 2.614865 -103.91541428571428 5.671200714285714 -48.90137142857142 4.448666428571428 -89.41479928571428 42.85661857142857 -95.08599999999998 91.58819357142858A608.2108071428571 608.2108071428571 0 0 0 33.95928571428571 237.71499999999997c0 23.975255714285712 2.0375571428571426 47.61091857142856 4.754300000000001 70.77115142857143Z" stroke-width="36.57"></path>
    <path id="Intersect_2" stroke="#17c8b8" stroke-linecap="round" stroke-linejoin="round" d="M230.37979428571427 314.4629857142857C271.94595999999996 292.18569428571425 325.83934642857145 259.17726857142856 325.83934642857145 237.71499999999997c0 -21.46226857142857 -53.893386428571425 -54.47069428571429 -95.45955214285713 -76.7479857142857 -21.835820714285713 -11.681994285714284 -47.305285 4.482625714285715 -47.305285 29.238944999999998l0 95.01808142857142c0 24.756319285714284 25.469464285714285 40.92093928571428 47.305285 29.204985714285712Z" stroke-width="36.57"></path>
  </g>
</svg>