<svg viewBox="-10.665 -10.665 512 512" xmlns="http://www.w3.org/2000/svg" id="Video-File-Download--Streamline-Ultimate" height="512" width="512">
  <desc>
    Video File Download Streamline Icon: https://streamlinehq.com
  </desc>
  <path d="M194.22354166666668 480.44770833333337h-163.55666666666667a20.444583333333334 20.444583333333334 0 0 1 -20.444583333333334 -20.444583333333334v-429.33625a20.444583333333334 20.444583333333334 0 0 1 20.444583333333334 -20.444583333333334h271.76984625a20.444583333333334 20.444583333333334 0 0 1 14.454320416666667 5.9902629166666665L392.67911208333334 92.000625a20.444583333333334 20.444583333333334 0 0 1 5.9902629166666665 14.454320416666667V173.77895833333335" fill="none" stroke="#ffffff" stroke-linecap="round" stroke-linejoin="round" stroke-width="21.33"></path>
  <path d="M257.7448620833333 222.64151250000003 156.11483833333335 167.93180750000002a15.619661666666667 15.619661666666667 0 0 0 -23.225046666666664 13.656981666666669v117.27013a15.619661666666667 15.619661666666667 0 0 0 23.225046666666664 13.656981666666669l44.46696875 -27.354852500000003" fill="none" stroke="#ffffff" stroke-linecap="round" stroke-linejoin="round" stroke-width="21.33"></path>
  <path d="M235.11270833333333 357.78020833333335a122.6675 122.6675 0 1 0 245.335 0 122.6675 122.6675 0 1 0 -245.335 0" fill="none" stroke="#ffffff" stroke-linecap="round" stroke-linejoin="round" stroke-width="21.33"></path>
  <path d="m357.78020833333335 296.44645833333334 0 122.6675" fill="none" stroke="#ffffff" stroke-linecap="round" stroke-linejoin="round" stroke-width="21.33"></path>
  <path d="m357.78020833333335 419.11395833333336 -46.0003125 -46.0003125" fill="none" stroke="#ffffff" stroke-linecap="round" stroke-linejoin="round" stroke-width="21.33"></path>
  <path d="m357.78020833333335 419.11395833333336 46.0003125 -46.0003125" fill="none" stroke="#ffffff" stroke-linecap="round" stroke-linejoin="round" stroke-width="21.33"></path>
</svg>